<svg xmlns="http://www.w3.org/2000/svg" viewBox="0 0 150 36" width="150" height="36" role="img" aria-label="Open the app">
  <title>Open the app</title>
  <!-- Generated by harness/build-buttons.py. Do not edit. -->
  <rect width="150" height="36" rx="7" fill="#7C3AED"/>
  <path fill="#FFFFFF" d="M21.06 23.46Q19.1 23.46 17.94 22.37Q16.79 21.29 16.79 19.25V16.75Q16.79 14.71 17.94 13.63Q19.1 12.54 21.06 12.54Q23.01 12.54 24.17 13.63Q25.33 14.71 25.33 16.75V19.25Q25.33 21.29 24.17 22.37Q23.01 23.46 21.06 23.46ZM21.06 21.85Q22.23 21.85 22.88 21.16Q23.53 20.47 23.53 19.3V16.7Q23.53 15.53 22.88 14.84Q22.23 14.15 21.06 14.15Q19.9 14.15 19.24 14.84Q18.59 15.53 18.59 16.7V19.3Q18.59 20.47 19.24 21.16Q19.9 21.85 21.06 21.85ZM27.21 26.25V15.84H28.89V16.81H29.15Q29.41 16.35 29.98 15.99Q30.54 15.63 31.58 15.63Q32.49 15.63 33.26 16.07Q34.03 16.52 34.5 17.37Q34.96 18.22 34.96 19.43V19.66Q34.96 20.86 34.5 21.72Q34.03 22.57 33.26 23.01Q32.49 23.46 31.58 23.46Q30.88 23.46 30.41 23.29Q29.93 23.12 29.64 22.86Q29.35 22.59 29.18 22.32H28.92V26.25ZM31.07 21.96Q32.02 21.96 32.63 21.35Q33.24 20.75 33.24 19.62V19.47Q33.24 18.34 32.62 17.73Q32.01 17.13 31.07 17.13Q30.14 17.13 29.52 17.73Q28.9 18.34 28.9 19.47V19.62Q28.9 20.75 29.52 21.35Q30.14 21.96 31.07 21.96ZM40.18 23.46Q39.06 23.46 38.22 22.99Q37.37 22.52 36.9 21.65Q36.43 20.79 36.43 19.63V19.45Q36.43 18.29 36.9 17.43Q37.36 16.57 38.2 16.1Q39.03 15.63 40.13 15.63Q41.22 15.63 42.02 16.1Q42.83 16.58 43.28 17.43Q43.73 18.28 43.73 19.42V20.04H38.17Q38.21 20.91 38.79 21.43Q39.37 21.96 40.23 21.96Q41.06 21.96 41.47 21.59Q41.88 21.22 42.09 20.76L43.51 21.49Q43.29 21.9 42.9 22.36Q42.5 22.82 41.84 23.14Q41.19 23.46 40.18 23.46ZM38.19 18.74H41.98Q41.92 18 41.42 17.56Q40.92 17.13 40.12 17.13Q39.3 17.13 38.8 17.56Q38.3 18 38.19 18.74ZM45.51 23.25V15.84H47.19V16.88H47.45Q47.64 16.45 48.16 16.08Q48.68 15.71 49.71 15.71Q50.57 15.71 51.22 16.1Q51.87 16.48 52.24 17.17Q52.61 17.87 52.61 18.81V23.25H50.89V18.94Q50.89 18.04 50.45 17.6Q50 17.16 49.19 17.16Q48.28 17.16 47.75 17.77Q47.22 18.38 47.22 19.49V23.25ZM61.37 23.25Q60.66 23.25 60.23 22.82Q59.8 22.39 59.8 21.66V17.27H57.86V15.84H59.8V13.45H61.52V15.84H63.65V17.27H61.52V21.37Q61.52 21.82 61.95 21.82H63.43V23.25ZM65.41 23.25V12.75H67.13V16.81H67.38Q67.51 16.55 67.78 16.3Q68.05 16.04 68.49 15.88Q68.93 15.71 69.61 15.71Q70.47 15.71 71.13 16.1Q71.78 16.48 72.15 17.18Q72.51 17.87 72.51 18.81V23.25H70.8V18.94Q70.8 18.04 70.35 17.6Q69.91 17.17 69.1 17.17Q68.18 17.17 67.66 17.77Q67.13 18.38 67.13 19.49V23.25ZM78.02 23.46Q76.91 23.46 76.06 22.99Q75.22 22.52 74.75 21.65Q74.28 20.79 74.28 19.63V19.45Q74.28 18.29 74.74 17.43Q75.21 16.57 76.04 16.1Q76.88 15.63 77.98 15.63Q79.06 15.63 79.87 16.1Q80.67 16.58 81.12 17.43Q81.57 18.28 81.57 19.42V20.04H76.02Q76.05 20.91 76.63 21.43Q77.22 21.96 78.07 21.96Q78.91 21.96 79.31 21.59Q79.72 21.22 79.93 20.76L81.35 21.49Q81.14 21.9 80.74 22.36Q80.34 22.82 79.69 23.14Q79.03 23.46 78.02 23.46ZM76.03 18.74H79.83Q79.77 18 79.27 17.56Q78.77 17.13 77.97 17.13Q77.14 17.13 76.65 17.56Q76.15 18 76.03 18.74ZM89.47 23.46Q88.68 23.46 88.06 23.19Q87.43 22.91 87.06 22.38Q86.69 21.85 86.69 21.1Q86.69 20.34 87.06 19.83Q87.43 19.31 88.07 19.06Q88.72 18.8 89.54 18.8H91.69V18.35Q91.69 17.76 91.33 17.4Q90.97 17.03 90.21 17.03Q89.46 17.03 89.07 17.38Q88.69 17.73 88.57 18.29L86.98 17.76Q87.16 17.18 87.56 16.7Q87.95 16.22 88.62 15.92Q89.28 15.63 90.23 15.63Q91.68 15.63 92.52 16.36Q93.36 17.09 93.36 18.47V21.38Q93.36 21.83 93.78 21.83H94.4V23.25H93.19Q92.65 23.25 92.31 22.98Q91.96 22.71 91.96 22.25V22.22H91.7Q91.62 22.43 91.39 22.72Q91.16 23.02 90.71 23.24Q90.25 23.46 89.47 23.46ZM89.76 22.06Q90.61 22.06 91.15 21.57Q91.69 21.08 91.69 20.25V20.1H89.66Q89.09 20.1 88.75 20.34Q88.41 20.59 88.41 21.04Q88.41 21.5 88.76 21.78Q89.12 22.06 89.76 22.06ZM95.83 26.25V15.84H97.52V16.81H97.77Q98.04 16.35 98.6 15.99Q99.16 15.63 100.2 15.63Q101.12 15.63 101.89 16.07Q102.66 16.52 103.12 17.37Q103.59 18.22 103.59 19.43V19.66Q103.59 20.86 103.12 21.72Q102.66 22.57 101.89 23.01Q101.12 23.46 100.2 23.46Q99.51 23.46 99.03 23.29Q98.55 23.12 98.26 22.86Q97.97 22.59 97.8 22.32H97.55V26.25ZM99.7 21.96Q100.64 21.96 101.26 21.35Q101.87 20.75 101.87 19.62V19.47Q101.87 18.34 101.25 17.73Q100.63 17.13 99.7 17.13Q98.76 17.13 98.14 17.73Q97.52 18.34 97.52 19.47V19.62Q97.52 20.75 98.14 21.35Q98.76 21.96 99.7 21.96ZM105.42 26.25V15.84H107.1V16.81H107.36Q107.62 16.35 108.19 15.99Q108.75 15.63 109.79 15.63Q110.7 15.63 111.47 16.07Q112.24 16.52 112.71 17.37Q113.17 18.22 113.17 19.43V19.66Q113.17 20.86 112.71 21.72Q112.24 22.57 111.47 23.01Q110.7 23.46 109.79 23.46Q109.09 23.46 108.62 23.29Q108.14 23.12 107.85 22.86Q107.56 22.59 107.39 22.32H107.13V26.25ZM109.28 21.96Q110.23 21.96 110.84 21.35Q111.45 20.75 111.45 19.62V19.47Q111.45 18.34 110.83 17.73Q110.22 17.13 109.28 17.13Q108.35 17.13 107.73 17.73Q107.11 18.34 107.11 19.47V19.62Q107.11 20.75 107.73 21.35Q108.35 21.96 109.28 21.96ZM129.45 23.43 128.35 22.33 130 20.69 130.59 20.32 130.5 20.09 129.81 20.2H122.3V18.64H129.81L130.5 18.75L130.59 18.51L130 18.14L128.35 16.5L129.45 15.41L132.89 18.86V19.98Z"/>
</svg>
